<svg xmlns="http://www.w3.org/2000/svg" viewBox="0 0 64 64">
  <rect width="64" height="64" rx="12" fill="#1a1a2e"/>
  <g transform="translate(32,32)">
    <!-- Engrenage -->
    <path d="M0-14 L3-11 L7-13 L9-9 L13-8 L13-4 L16-1 L13 2 L14 6 L10 8 L9 12 L5 12 L3 15 L-1 14 L-3 16 L-7 14 L-9 11 L-13 10 L-13 6 L-16 3 L-13 0 L-14-4 L-10-6 L-9-10 L-5-11 Z" fill="#2563eb" opacity="0.9"/>
    <circle cx="0" cy="0" r="5" fill="#1a1a2e"/>
    <!-- Clé à molette -->
    <g transform="rotate(45)">
      <rect x="8" y="-2.5" width="14" height="5" rx="2.5" fill="#f8fafc"/>
      <circle cx="8" cy="0" r="5" fill="none" stroke="#f8fafc" stroke-width="3"/>
      <rect x="7" y="-1.5" width="4" height="3" fill="#1a1a2e"/>
    </g>
  </g>
</svg>
